<svg xmlns="http://www.w3.org/2000/svg" width="19.378" height="19.378" viewBox="0 0 19.378 19.378">
  <path id="パス_3298" data-name="パス 3298" d="M16.534,2.938h3.876a.969.969,0,0,1,.969.969v15.5a.969.969,0,0,1-.969.969H2.969A.969.969,0,0,1,2,19.409V3.907a.969.969,0,0,1,.969-.969H6.845V1H8.782V2.938H14.6V1h1.938Zm2.907,7.751H3.938V18.44h15.5ZM14.6,4.876H8.782V6.813H6.845V4.876H3.938V8.751h15.5V4.876H16.534V6.813H14.6Zm-8.72,7.751H7.813v1.938H5.876Zm4.845,0h1.938v1.938H10.72Zm4.845,0H17.5v1.938H15.565Z" transform="translate(-2 -1)" fill="#1b2330"/>
</svg>
