<svg xmlns="http://www.w3.org/2000/svg" width="50" height="50" viewBox="0 0 50 50">
  <path id="iconmonstr-calendar-4" d="M41.667,41.667H33.333V33.333h8.333Zm-12.5-20.833H20.833v8.333h8.333Zm12.5,0H33.333v8.333h8.333Zm-25,12.5H8.333v8.333h8.333Zm12.5,0H20.833v8.333h8.333Zm-12.5-12.5H8.333v8.333h8.333ZM50,4.167V50H0V4.167H6.25V6.25a4.167,4.167,0,0,0,8.333,0V4.167H35.417V6.25a4.167,4.167,0,1,0,8.333,0V4.167Zm-4.167,12.5H4.167V45.833H45.833ZM41.667,2.083a2.083,2.083,0,1,0-4.167,0V6.25a2.083,2.083,0,1,0,4.167,0ZM12.5,6.25a2.083,2.083,0,0,1-4.167,0V2.083a2.083,2.083,0,0,1,4.167,0Z" fill="#3d4753"/>
</svg>
