<svg xmlns="http://www.w3.org/2000/svg" width="55.882" height="50" viewBox="0 0 55.882 50">
  <g id="_" data-name="¥" transform="translate(-2377 -111)">
    <g id="パス_1" data-name="パス 1" transform="translate(2377 111)" fill="#1b2330">
      <path d="M 54.88236236572266 49.00001525878906 L 1.000001192092896 49.00001525878906 L 1.000001192092896 1.000003814697266 L 54.88236236572266 1.000003814697266 L 54.88236236572266 49.00001525878906 Z" stroke="none"/>
      <path d="M 2 1.999992370605469 L 2 48.00000381469727 L 53.88236236572266 48.00000381469727 L 53.88236236572266 1.999992370605469 L 2 1.999992370605469 M 0 -7.62939453125e-06 L 55.88236236572266 -7.62939453125e-06 L 55.88236236572266 50.00000381469727 L 0 50.00000381469727 L 0 -7.62939453125e-06 Z" stroke="none" fill="#1b2330"/>
    </g>
    <path id="iconmonstr-currency-12" d="M31.421,0H24.908l-7.7,12.829L9.613,0H3l9.352,15.68H6.158v2.851h7.895v2.851H6.158v2.851h7.895v9.978h6.316V24.232h7.895V21.382H20.368V18.531h7.895V15.68H22.086C24.908,10.993,30.327,1.976,31.421,0Z" transform="translate(2387.731 118.895)" fill="#fff"/>
  </g>
</svg>
