<svg xmlns="http://www.w3.org/2000/svg" width="50" height="45.833" viewBox="0 0 50 45.833">
  <path id="iconmonstr-gear-11" d="M35.417,21.094V16.323c-2.437-.869-3.973-1.11-4.75-2.981s.146-3.15,1.25-5.469L28.546,4.5c-2.3,1.094-3.59,2.029-5.471,1.25S20.956,3.425,20.094,1H15.323c-.858,2.413-1.1,3.973-2.981,4.75h0C10.465,6.529,9.194,5.6,6.871,4.5L3.5,7.873c1.1,2.313,2.027,3.592,1.25,5.469S2.413,15.465,0,16.323v4.769c2.406.858,3.973,1.106,4.75,2.981.783,1.892-.169,3.2-1.25,5.469l3.371,3.373c2.306-1.094,3.592-2.029,5.469-1.25h0c1.875.777,2.121,2.329,2.981,4.75h4.769c.858-2.413,1.1-3.969,2.994-4.754h0c1.863-.775,3.127.148,5.456,1.254l3.371-3.373c-1.094-2.306-2.029-3.59-1.252-5.469s2.346-2.123,4.754-2.979ZM17.708,24.612a5.9,5.9,0,1,1,5.9-5.9,5.9,5.9,0,0,1-5.9,5.9ZM50,33.373V31.129c-1.146-.408-1.869-.523-2.235-1.4s.069-1.481.587-2.575l-1.587-1.588c-1.083.517-1.69.954-2.573.59s-1-1.094-1.4-2.235H40.546c-.4,1.135-.521,1.869-1.4,2.235s-1.481-.069-2.573-.59l-1.587,1.588c.517,1.09.954,1.692.587,2.575s-1.1,1-2.235,1.4v2.244c1.133.4,1.869.521,2.235,1.4s-.079,1.5-.587,2.575l1.587,1.587c1.085-.517,1.692-.954,2.573-.59s1,1.1,1.4,2.235h2.242c.4-1.135.521-1.869,1.408-2.237h0c.877-.365,1.471.071,2.567.592l1.587-1.587c-.515-1.085-.954-1.692-.587-2.573s1.1-1,2.235-1.4Zm-8.333,1.654a2.777,2.777,0,1,1,2.777-2.777A2.778,2.778,0,0,1,41.667,35.027Zm-8.333,6.4V39.742c-.858-.306-1.4-.392-1.677-1.052s.05-1.11.442-1.931l-1.192-1.19c-.81.388-1.265.717-1.929.442s-.748-.821-1.054-1.677H26.242c-.3.852-.392,1.4-1.054,1.677s-1.11-.05-1.929-.442l-1.192,1.19c.39.819.717,1.269.442,1.931s-.825.748-1.677,1.052v1.683c.85.3,1.4.392,1.677,1.052s-.058,1.129-.442,1.931l1.192,1.19c.813-.388,1.267-.717,1.929-.442s.748.823,1.054,1.677h1.681c.3-.852.392-1.4,1.056-1.677h0c.656-.273,1.1.052,1.925.444L32.1,44.41c-.387-.815-.717-1.269-.442-1.931s.827-.752,1.677-1.054Zm-6.25,1.242a2.083,2.083,0,1,1,2.083-2.083A2.083,2.083,0,0,1,27.083,42.667Z" transform="translate(0 -1)" fill="#1b2330"/>
</svg>
