<svg xmlns="http://www.w3.org/2000/svg" width="50" height="48.81" viewBox="0 0 50 48.81">
  <g id="段ボール" transform="translate(-2296 -413)">
    <path id="iconmonstr-shipping-box-3" d="M19.663,21.271l-.408.232V19.46l.408-.232Zm3.361-3.958-.407.232v2.044l.407-.232Zm4.167-9.05v13.7l-11.607,6.61L1,20.264V6.565L12.627,0,27.19,8.263ZM10.707,3.819l10.74,6.164,2.024-1.092L12.623,2.737,10.707,3.819ZM14.1,15.343,3.381,9.131v9.75l10.714,6.1ZM17.692,12,7.193,5.788,4.76,7.177l10.548,6.117L17.692,12Zm7.118-1.123L22.429,12.16v3.317l-3.571,2.01v-3.4l-2.381,1.283v9.955L24.81,20.58Zm-5.842,8.748-.415.237V21.9l.415-.232Zm1.673-.952-.41.233v2.044l.41-.233Zm.683-.389-.408.232v2.044l.408-.232Zm.7-.4-.417.237v2.044l.417-.237V17.886Z" transform="translate(2305.714 413)" fill="#1b2330"/>
    <path id="iconmonstr-shipping-box-3-2" data-name="iconmonstr-shipping-box-3" d="M19.663,21.271l-.408.232V19.46l.408-.232Zm3.361-3.958-.407.232v2.044l.407-.232Zm4.167-9.05v13.7l-11.607,6.61L1,20.264V6.565L12.627,0,27.19,8.263ZM10.707,3.819l10.74,6.164,2.024-1.092L12.623,2.737,10.707,3.819ZM14.1,15.343,3.381,9.131v9.75l10.714,6.1ZM17.692,12,7.193,5.788,4.76,7.177l10.548,6.117L17.692,12Zm7.118-1.123L22.429,12.16v3.317l-3.571,2.01v-3.4l-2.381,1.283v9.955L24.81,20.58Zm-5.842,8.748-.415.237V21.9l.415-.232Zm1.673-.952-.41.233v2.044l.41-.233Zm.683-.389-.408.232v2.044l.408-.232Zm.7-.4-.417.237v2.044l.417-.237V17.886Z" transform="translate(2295 432.048)" fill="#1b2330"/>
    <path id="iconmonstr-shipping-box-3-3" data-name="iconmonstr-shipping-box-3" d="M19.663,21.271l-.408.232V19.46l.408-.232Zm3.361-3.958-.407.232v2.044l.407-.232Zm4.167-9.05v13.7l-11.607,6.61L1,20.264V6.565L12.627,0,27.19,8.263ZM10.707,3.819l10.74,6.164,2.024-1.092L12.623,2.737,10.707,3.819ZM14.1,15.343,3.381,9.131v9.75l10.714,6.1ZM17.692,12,7.193,5.788,4.76,7.177l10.548,6.117L17.692,12Zm7.118-1.123L22.429,12.16v3.317l-3.571,2.01v-3.4l-2.381,1.283v9.955L24.81,20.58Zm-5.842,8.748-.415.237V21.9l.415-.232Zm1.673-.952-.41.233v2.044l.41-.233Zm.683-.389-.408.232v2.044l.408-.232Zm.7-.4-.417.237v2.044l.417-.237V17.886Z" transform="translate(2318.81 433.238)" fill="#1b2330"/>
  </g>
</svg>
